<svg xmlns="http://www.w3.org/2000/svg" viewBox="0 0 900 500">
  <defs>
    <linearGradient id="sky" x1="0" x2="0" y1="0" y2="1">
      <stop offset="0%" stop-color="#cbdffb"/>
      <stop offset="100%" stop-color="#e9f5ff"/>
    </linearGradient>
    <linearGradient id="water" x1="0" x2="0" y1="0" y2="1">
      <stop offset="0%" stop-color="#8fd3ff"/>
      <stop offset="100%" stop-color="#6fb6e8"/>
    </linearGradient>
  </defs>
  <rect width="900" height="300" fill="url(#sky)"/>
  <rect y="300" width="900" height="120" fill="url(#water)"/>
  <rect y="380" width="900" height="120" fill="#bfe3a1"/>
  <rect x="140" y="290" width="180" height="110" fill="#ffe8d6" stroke="#d8b59e"/>
  <polygon points="130,290 230,230 340,290" fill="#f4a261" stroke="#ce8950"/>
  <rect x="170" y="330" width="40" height="70" fill="#ccb9a5" stroke="#a89078"/>
  <rect x="235" y="320" width="60" height="40" fill="#b3d9ff" stroke="#7fb3e6"/>
  <rect x="360" y="340" width="18" height="60" fill="#9b6b43"/>
  <circle cx="369" cy="330" r="38" fill="#7dcf6e"/>
  <circle cx="390" cy="350" r="30" fill="#7dcf6e"/>
  <circle cx="345" cy="350" r="28" fill="#7dcf6e"/>
  <g fill="#4d4d4d">
    <circle cx="520" cy="360" r="12"/><rect x="512" y="372" width="16" height="46"/>
    <circle cx="560" cy="360" r="12"/><rect x="552" y="372" width="16" height="46"/>
    <circle cx="600" cy="365" r="10"/><rect x="594" y="375" width="12" height="40"/>
    <circle cx="630" cy="368" r="9"/><rect x="625" y="378" width="10" height="36"/>
    <circle cx="655" cy="366" r="9"/><rect x="650" y="376" width="10" height="36"/>
  </g>
  <g stroke="#d4b48a" fill="none">
    <line x1="320" y1="390" x2="470" y2="390"/>
    <line x1="320" y1="410" x2="470" y2="410"/>
    <line x1="330" y1="380" x2="330" y2="420"/>
    <line x1="350" y1="380" x2="350" y2="420"/>
    <line x1="370" y1="380" x2="370" y2="420"/>
    <line x1="390" y1="380" x2="390" y2="420"/>
    <line x1="410" y1="380" x2="410" y2="420"/>
    <line x1="430" y1="380" x2="430" y2="420"/>
    <line x1="450" y1="380" x2="450" y2="420"/>
  </g>
  <path d="M730,140 q10,-10 20,0 M760,140 q10,-10 20,0" stroke="#7aa1cc" fill="none"/>
</svg>